<svg width="81" height="24" viewBox="0 0 81 24" fill="none" xmlns="http://www.w3.org/2000/svg">
<g clip-path="url(#clip0_99_697)">
<path d="M68.5818 2.32208e-06H12.4707C9.30211 -0.00194905 6.26106 1.22606 4.01038 3.4164C2.90092 4.49626 2.0201 5.78109 1.4187 7.19685C0.817298 8.61257 0.507225 10.1312 0.506348 11.6652V12.3354C0.507305 13.8693 0.817424 15.3878 1.41881 16.8034C2.02021 18.2191 2.90099 19.5038 4.01038 20.5836C6.26106 22.7739 9.30211 24.0019 12.4707 24H68.5818C71.7507 24.0019 74.7917 22.7739 77.0422 20.5836C78.1518 19.5036 79.0323 18.2187 79.6335 16.803C80.2347 15.3874 80.5455 13.8688 80.5462 12.3348V11.6652C80.5455 10.1313 80.2354 8.61278 79.6335 7.19719C79.0323 5.78152 78.1518 4.49678 77.0422 3.417C74.7917 1.2266 71.7507 -0.0015938 68.5818 2.32208e-06Z" fill="#FD4100"/>
<path d="M57.634 12.261C57.6315 13.4487 57.3897 14.6243 56.9228 15.72C56.4559 16.8157 55.7729 17.81 54.9134 18.6456C53.1697 20.3406 50.8152 21.2913 48.3616 21.291H12.9657C10.5112 21.2923 8.15547 20.3423 6.41038 18.6474C5.54962 17.8119 4.86557 16.8176 4.39758 15.7215C3.92961 14.6256 3.68693 13.4495 3.68353 12.261V11.7384C3.68677 10.5502 3.9292 9.37422 4.39686 8.27831C4.86452 7.1824 5.54819 6.18811 6.40855 5.35258C8.15407 3.65716 10.5106 2.70708 12.9657 2.70899H48.3605C50.8138 2.70849 53.1684 3.65896 54.9121 5.35379C55.772 6.18928 56.4551 7.1835 56.9222 8.2792C57.3894 9.3749 57.6313 10.5505 57.634 11.7384V12.261Z" fill="white"/>
<path d="M62.6546 13.7856C62.6489 14.0565 62.5363 14.3147 62.3405 14.5056C62.1436 14.698 61.8788 14.8085 61.6012 14.8141C61.4574 14.8225 61.3135 14.8021 61.178 14.7543C61.0425 14.7064 60.9184 14.6321 60.813 14.5357C60.7083 14.4397 60.6248 14.3236 60.5677 14.1945C60.5106 14.0655 60.4812 13.9263 60.4812 13.7856C60.4812 13.645 60.5106 13.5058 60.5677 13.3768C60.6248 13.2477 60.7083 13.1317 60.813 13.0357C60.9183 12.9392 61.0425 12.8648 61.178 12.817C61.3134 12.7691 61.4574 12.7488 61.6012 12.7573C61.8786 12.762 62.1433 12.8716 62.3405 13.0632C62.5372 13.2545 62.6499 13.5138 62.6546 13.7856Z" fill="white"/>
<path d="M68.8421 9.05991C68.3623 9.16126 67.8718 9.20576 67.3812 9.19252C67.7244 9.2877 68.0253 9.49307 68.2357 9.77586C68.4462 10.0586 68.5541 10.4025 68.5421 10.7525C68.5421 11.9123 67.5682 12.7589 65.9711 12.7589C65.734 12.765 65.497 12.7429 65.2654 12.6929C65.2015 12.7259 65.1479 12.7752 65.1102 12.8357C65.0721 12.8958 65.051 12.9648 65.0491 13.0355C65.0491 13.2197 65.1322 13.4039 65.7249 13.4039H66.6768C68.112 13.4039 69.0327 14.1401 69.0327 15.1439C69.0327 16.3847 67.9 17.1353 65.7823 17.1353C63.6646 17.1353 62.9961 16.5425 62.8599 15.5525C62.8562 15.509 62.8618 15.4652 62.8762 15.4239C62.8906 15.3826 62.9135 15.3447 62.9436 15.3125C62.9746 15.2803 63.0121 15.2548 63.0536 15.2375C63.0951 15.2201 63.1398 15.2115 63.185 15.2123H64.2157C64.2861 15.212 64.3544 15.2358 64.4088 15.2796C64.4632 15.3234 64.5004 15.3845 64.5138 15.4523C64.5927 15.8201 64.9177 15.9527 65.8391 15.9527C66.9224 15.9527 67.1644 15.6617 67.1644 15.2789C67.1644 14.8961 66.92 14.6825 66.2992 14.6825H65.4047C64.0532 14.6825 63.5167 14.1425 63.5167 13.4975C63.5335 13.2617 63.6092 13.0336 63.7372 12.8333C63.865 12.633 64.0411 12.4667 64.2499 12.3491C63.9085 12.2076 63.6191 11.9673 63.4202 11.6603C63.2218 11.3544 63.1239 10.996 63.1397 10.6337C63.1397 9.27529 64.2499 8.42507 65.8471 8.42507C66.7445 8.47156 67.6367 8.26455 68.4181 7.82871C68.4819 7.79908 68.5536 7.78983 68.6231 7.80224C68.6925 7.81458 68.7563 7.84798 68.8054 7.89769C68.8378 7.93067 68.8628 7.9699 68.8788 8.01289L69.0938 8.67289C69.1068 8.71424 69.1108 8.75778 69.1054 8.80071C69.1 8.84322 69.0854 8.88409 69.0627 8.92071C69.04 8.95787 69.0096 8.98996 68.9735 9.01492C68.9367 9.03981 68.8951 9.05703 68.8513 9.06532L68.8421 9.05991ZM64.9538 10.5947C64.9357 10.7246 64.947 10.8568 64.9867 10.982C65.0264 11.1072 65.0937 11.2223 65.1836 11.3192C65.2736 11.416 65.3841 11.4923 65.5074 11.5427C65.6307 11.593 65.7638 11.6162 65.8971 11.6105C66.4635 11.6105 66.8185 11.2427 66.8185 10.5689C66.8185 9.89511 66.5203 9.58969 65.8971 9.58969C65.7649 9.58605 65.6334 9.61026 65.5115 9.66066C65.3896 9.71106 65.28 9.78649 65.1902 9.88187C65.1007 9.97677 65.0332 10.0896 64.9924 10.2125C64.9516 10.3355 64.9384 10.4657 64.9538 10.5941V10.5947Z" fill="white"/>
<path d="M74.9969 12.1476H71.1794C71.2891 13.2276 71.833 13.5204 72.5879 13.5204C73.0215 13.5111 73.4432 13.3836 73.807 13.1521C73.8748 13.1096 73.9558 13.0924 74.0354 13.1034C74.115 13.1143 74.1883 13.1529 74.2414 13.2121L74.6191 13.7274C74.645 13.7618 74.6638 13.8009 74.6743 13.8426C74.6841 13.8843 74.6848 13.9275 74.6771 13.9696C74.6694 14.0117 74.6527 14.0518 74.6289 14.0874C74.6045 14.1231 74.5731 14.1535 74.536 14.1769C73.9055 14.5991 73.1604 14.8249 72.3972 14.8249C70.3394 14.8249 69.3126 13.5289 69.3126 11.6593C69.3126 9.84842 70.3136 8.427 72.1843 8.427C73.9439 8.427 75.0234 9.56104 75.0234 11.5009C75.0283 11.7168 75.0193 11.9328 74.9969 12.1476ZM73.2373 10.9993C73.2107 10.182 72.9691 9.615 72.2366 9.615C71.6138 9.615 71.2625 9.98344 71.1794 11.0874H73.2373V10.9993Z" fill="white"/>
<path d="M18.5489 10.4796V14.9671C18.5488 15.0085 18.5403 15.0496 18.524 15.0878C18.5077 15.126 18.4837 15.1607 18.4535 15.1897C18.4233 15.2188 18.3875 15.2419 18.3482 15.2574C18.3089 15.2729 18.2668 15.2807 18.2244 15.2803H16.8729C16.8305 15.2807 16.7884 15.2729 16.7491 15.2574C16.7098 15.2419 16.674 15.2188 16.6438 15.1897C16.6136 15.1607 16.5896 15.126 16.5733 15.0878C16.557 15.0496 16.5485 15.0085 16.5484 14.9671V10.8223C16.5484 10.1227 16.304 9.9391 15.9784 9.9391C15.5746 9.9391 15.2495 10.2559 14.9776 10.7971V14.9676C14.9738 15.0502 14.9381 15.1282 14.878 15.186C14.8176 15.2441 14.737 15.2777 14.6525 15.2803H13.276C13.1943 15.2765 13.1174 15.2417 13.0615 15.1831C13.0058 15.1247 12.9757 15.0471 12.9778 14.9671V10.8223C12.9778 10.1227 12.7059 9.9391 12.3815 9.9391C11.974 9.9391 11.6483 10.2559 11.3507 10.7971V14.9676C11.3523 15.0071 11.3459 15.0464 11.332 15.0833C11.318 15.1203 11.2968 15.1542 11.2695 15.1831C11.2142 15.2417 11.1376 15.2766 11.0562 15.2803H9.67112C9.58663 15.2777 9.50611 15.2441 9.44564 15.186C9.38552 15.1282 9.34991 15.0502 9.34607 14.9676V9.02765C9.349 8.94447 9.3842 8.86548 9.44446 8.80685C9.50493 8.74788 9.58593 8.71359 9.67112 8.71085H10.832C10.9063 8.70975 10.9783 8.73608 11.0337 8.7847C11.089 8.83297 11.1235 8.90011 11.1302 8.97245L11.2395 9.5023C11.4563 9.19277 11.7475 8.94049 12.0873 8.76783C12.427 8.5951 12.8048 8.50733 13.1874 8.51227C13.5306 8.49643 13.8701 8.58735 14.1576 8.77208C14.4459 8.95558 14.667 9.22465 14.7888 9.54008C15.0101 9.21999 15.3086 8.95867 15.6578 8.77949C16.0069 8.60024 16.3959 8.50863 16.7898 8.51288C17.8468 8.51405 18.5489 9.2503 18.5489 10.4796Z" fill="#414042"/>
<path d="M23.8008 15.2947C23.5967 16.0569 23.1455 16.7331 22.5155 17.2211C21.8854 17.7092 21.1107 17.9826 20.3084 18.0001C20.2264 18.0077 20.1446 17.9846 20.0793 17.9353C20.014 17.8863 19.9702 17.8146 19.9571 17.735L19.8477 16.9579C19.8348 16.8808 19.8529 16.8018 19.8984 16.7377C19.9448 16.6744 20.0145 16.6314 20.0927 16.6177C20.4389 16.6009 20.7754 16.5003 21.0725 16.325C21.3696 16.1496 21.618 15.905 21.7955 15.6127C21.6616 15.5481 21.5423 15.4578 21.4448 15.347C21.3476 15.2363 21.2742 15.1076 21.2292 14.9683L19.3418 9.12012C19.3248 9.07376 19.3195 9.02405 19.3264 8.97522C19.3333 8.9264 19.3522 8.87998 19.3815 8.83993C19.4109 8.79975 19.4498 8.76711 19.4948 8.74476C19.5398 8.7224 19.5895 8.71102 19.64 8.71157H21.0746C21.1492 8.71301 21.2214 8.73852 21.2799 8.78412C21.3386 8.82958 21.3803 8.89287 21.3984 8.96412L22.5312 14.0294L23.8032 8.94972C23.8192 8.88375 23.857 8.82485 23.9108 8.78233C23.965 8.73975 24.032 8.71589 24.1014 8.71452H25.4792C25.5319 8.70917 25.585 8.71705 25.6337 8.73756C25.6824 8.75799 25.7249 8.79036 25.7572 8.83157C25.7894 8.87237 25.8103 8.92064 25.8179 8.97173C25.8255 9.02281 25.8195 9.075 25.8006 9.12313L23.8008 15.2947Z" fill="#414042"/>
<path d="M32.2995 14.4258L32.0275 15.2172C32.0029 15.2865 31.9545 15.3452 31.8907 15.3834C31.8267 15.4217 31.7512 15.4371 31.6769 15.4272C31.387 15.4106 31.1076 15.3153 30.8697 15.1518C30.6326 14.989 30.4466 14.7644 30.3327 14.5032C30.1122 14.8285 29.8085 15.0913 29.4521 15.265C29.0956 15.4387 28.6989 15.5174 28.3018 15.4932C28.0159 15.5131 27.729 15.4742 27.4593 15.3789C27.1896 15.2837 26.9432 15.1342 26.7358 14.94C26.529 14.7468 26.3662 14.5128 26.2578 14.2535C26.1495 13.9942 26.0981 13.7154 26.1071 13.4352C26.1071 12.0108 27.2173 11.2266 29.2745 11.2266H29.9563V10.9356C29.9563 10.1586 29.6582 9.92339 28.8236 9.92339C28.3264 9.94224 27.8345 10.0304 27.3626 10.185C27.2795 10.213 27.1886 10.2084 27.1088 10.172C27.0291 10.1357 26.9668 10.0705 26.9349 9.99004L26.6906 9.27964C26.6623 9.2025 26.6663 9.11754 26.7016 9.0432C26.7371 8.9686 26.8009 8.91065 26.8794 8.88179C27.6059 8.65166 28.3628 8.52775 29.126 8.51404C31.0781 8.51404 31.9158 9.30542 31.9158 10.8366V13.3836C31.8969 13.5109 31.9093 13.6408 31.9518 13.7624C31.9942 13.8841 32.0657 13.9941 32.1601 14.0832C32.2177 14.1182 32.2621 14.1706 32.2866 14.2326C32.3113 14.2943 32.3145 14.3622 32.2958 14.4258H32.2995ZM29.9563 13.461V12.3H29.4578C28.5413 12.3 28.1062 12.6168 28.1062 13.26C28.0918 13.367 28.1016 13.4759 28.135 13.5788C28.1684 13.6817 28.2245 13.7761 28.2993 13.8552C28.3744 13.9347 28.4663 13.9971 28.5686 14.038C28.6709 14.079 28.7811 14.0975 28.8914 14.0922C29.1113 14.0923 29.327 14.0331 29.5151 13.9212C29.7024 13.8104 29.8551 13.6513 29.9563 13.461Z" fill="#414042"/>
<path d="M38.9595 15.2796H37.8268C37.7887 15.2811 37.7506 15.2751 37.7149 15.2619C37.6793 15.2487 37.6466 15.2286 37.6191 15.2028C37.5916 15.177 37.5698 15.1462 37.5548 15.1119C37.54 15.0777 37.5323 15.0408 37.5323 15.0036L37.4492 14.4516C37.2352 14.7865 36.9343 15.0595 36.5774 15.2426C36.2206 15.4256 35.8204 15.5121 35.4182 15.4932C34.1761 15.4932 33.5529 14.7018 33.5529 13.4208V9.02935C33.5524 8.98759 33.5605 8.94617 33.5767 8.90749C33.5928 8.86882 33.6168 8.83378 33.647 8.80436C33.6774 8.77481 33.7134 8.75143 33.7531 8.73565C33.7927 8.71988 33.8352 8.71207 33.878 8.71255H35.2411C35.3263 8.71529 35.4073 8.74957 35.4677 8.80855C35.528 8.86717 35.5632 8.94617 35.5661 9.02935V13.185C35.5661 13.845 35.7812 14.0429 36.2156 14.0429C36.4497 14.0209 36.6737 13.938 36.8645 13.8029C37.0546 13.6688 37.2048 13.4871 37.2995 13.2768V9.0288C37.2993 8.98765 37.3074 8.94685 37.3233 8.9088C37.3395 8.87012 37.3635 8.83501 37.3937 8.8056C37.4239 8.77611 37.4598 8.75287 37.4993 8.73716C37.5381 8.72167 37.5796 8.71371 37.6215 8.71378H38.9767C39.0191 8.71371 39.0611 8.72194 39.1004 8.73785C39.1396 8.75382 39.1752 8.77728 39.2052 8.80676C39.2351 8.83611 39.2587 8.87101 39.2746 8.90948C39.2906 8.94788 39.2986 8.98909 39.2981 9.03058V14.9706C39.2986 15.0119 39.2907 15.0529 39.2747 15.0911C39.2588 15.1294 39.2351 15.1641 39.2052 15.1932C39.1752 15.2224 39.1396 15.2454 39.1005 15.261C39.0614 15.2765 39.0195 15.2843 38.9773 15.2837" fill="#414042"/>
<path d="M45.0567 14.7241C45.0872 14.7788 45.0999 14.8414 45.0933 14.9035C45.0866 14.9656 45.0608 15.0242 45.0194 15.0715C44.992 15.1031 44.9583 15.129 44.9204 15.1477C44.4429 15.3855 43.9156 15.5114 43.3802 15.5155C41.8924 15.5155 41.1604 14.6839 41.1604 13.1413V10.0801H40.5262C40.4619 10.081 40.3987 10.0629 40.345 10.0281C40.2913 9.99337 40.2495 9.94352 40.225 9.8851C40.2091 9.84704 40.201 9.80624 40.2012 9.7651V9.02946C40.2006 8.9877 40.2087 8.94629 40.2249 8.90761C40.2411 8.86894 40.265 8.8339 40.2953 8.80448C40.3256 8.77493 40.3617 8.75154 40.4013 8.73577C40.441 8.72 40.4834 8.71218 40.5262 8.71266H41.1494V7.57266C41.1539 7.49422 41.186 7.41975 41.2404 7.36208C41.295 7.30434 41.3682 7.26683 41.4476 7.25593L42.8028 7.11248C42.8464 7.107 42.8907 7.11056 42.9329 7.12311C42.975 7.13559 43.0139 7.15671 43.0472 7.1851C43.0805 7.21355 43.1072 7.2488 43.1253 7.28837C43.1435 7.32793 43.1527 7.37093 43.1523 7.41433V8.71026H44.3413C44.3869 8.71212 44.4318 8.72357 44.4726 8.74386C44.5134 8.76409 44.5492 8.79276 44.5777 8.82786C44.6057 8.8629 44.6258 8.90343 44.6363 8.9467C44.6468 8.99004 44.6477 9.03502 44.6388 9.0787L44.5295 9.81488C44.5146 9.88839 44.4742 9.95456 44.4152 10.0021C44.3559 10.0499 44.2817 10.0762 44.205 10.0765H43.1663V13.0873C43.1663 13.7203 43.3814 13.9447 43.8158 13.9447C43.9745 13.9446 44.1314 13.9119 44.2765 13.8487C44.3487 13.821 44.4288 13.8194 44.5022 13.8443C44.5755 13.8693 44.6373 13.9192 44.6767 13.9849L45.0567 14.7241Z" fill="#414042"/>
<path d="M51.9765 12.0108C51.9765 14.1054 50.7307 15.4908 48.6735 15.4908C46.6163 15.4908 45.3698 14.199 45.3698 11.994C45.3698 9.89404 46.6156 8.51404 48.6735 8.51404C50.7313 8.51404 51.9765 9.79502 51.9765 12.0108ZM47.446 12.0108C47.446 13.461 47.8535 14.0682 48.668 14.0682C49.4824 14.0682 49.8838 13.4352 49.8838 12.0282C49.8838 10.5558 49.48 9.95582 48.668 9.95582C47.856 9.95582 47.446 10.5864 47.446 12.0108Z" fill="#414042"/>
</g>
<defs>
<clipPath id="clip0_99_697">
<rect width="81" height="24" fill="white"/>
</clipPath>
</defs>
</svg>
