<svg width="81" height="24" viewBox="0 0 81 24" fill="none" xmlns="http://www.w3.org/2000/svg">
<g clip-path="url(#clip0_99_735)">
<path d="M69.7656 0.254272H11.34C5.17696 0.254272 0.176086 5.4179 0.176086 11.7815V12.4361C0.176086 18.7997 5.17696 23.9634 11.34 23.9634H69.7304C75.8935 23.9634 80.8943 18.7997 80.8943 12.4361V11.7815C80.9296 5.4179 75.9287 0.254272 69.7656 0.254272Z" fill="#26B571"/>
<path d="M59.5526 12.3628C59.5526 17.2719 55.6787 21.2719 50.8891 21.2719H11.7978C7.04344 21.2719 3.13431 17.2719 3.13431 12.3628V11.8537C3.13431 6.94459 7.00822 2.94458 11.7978 2.94458H50.8539C55.6083 2.94458 59.5174 6.94459 59.5174 11.8537V12.3628H59.5526Z" fill="white"/>
<path d="M64.2365 13.8549C64.2365 14.4003 63.7787 14.873 63.2504 14.873C62.687 14.873 62.2643 14.4003 62.2643 13.8549C62.2643 13.3094 62.687 12.8367 63.2504 12.8367C63.7787 12.8367 64.2365 13.3094 64.2365 13.8549Z" fill="white"/>
<path d="M69.977 9.20023C69.6248 9.27296 69.2022 9.34569 68.6035 9.34569C69.343 9.67296 69.6952 10.1094 69.6952 10.873C69.6952 12.0366 68.7796 12.8366 67.3004 12.8366C67.0539 12.8366 66.8426 12.8366 66.6313 12.7639C66.4904 12.8366 66.42 12.982 66.42 13.0911C66.42 13.273 66.4904 13.4548 67.0539 13.4548H67.9343C69.2726 13.4548 70.1178 14.182 70.1178 15.1639C70.1178 16.4002 69.0613 17.1275 67.0891 17.1275C65.1522 17.1275 64.483 16.5457 64.3774 15.5639C64.3422 15.382 64.5183 15.2366 64.6944 15.2366H65.6452C65.7861 15.2366 65.8917 15.3093 65.927 15.4548C65.9974 15.8184 66.3144 15.9639 67.1596 15.9639C68.1809 15.9639 68.3922 15.673 68.3922 15.3093C68.3922 14.9457 68.1809 14.7275 67.5822 14.7275H66.737C65.4691 14.7275 64.9761 14.182 64.9761 13.5639C64.9761 13.1275 65.2578 12.6911 65.6452 12.4366C64.9057 12.0366 64.6239 11.5275 64.6239 10.7275C64.6239 9.38205 65.6452 8.54569 67.1596 8.54569C68.2513 8.58205 68.9557 8.32754 69.5544 7.9639C69.6952 7.89118 69.9065 7.9639 69.977 8.14572L70.1883 8.80023C70.2587 8.98205 70.153 9.16387 69.977 9.20023ZM66.3496 10.7275C66.3496 11.382 66.7017 11.7457 67.23 11.7457C67.7935 11.7457 68.0752 11.382 68.0752 10.7275C68.0752 10.073 67.7935 9.74569 67.23 9.74569C66.7017 9.70932 66.3496 10.1093 66.3496 10.7275Z" fill="white"/>
<path d="M75.7526 12.2551H72.1957C72.3013 13.3097 72.7944 13.6006 73.4987 13.6006C73.8861 13.6006 74.2383 13.4915 74.6257 13.2369C74.7665 13.1279 74.9426 13.2006 75.013 13.3097L75.3652 13.8188C75.4709 13.9642 75.4357 14.146 75.2948 14.2551C74.7665 14.6188 74.0974 14.9097 73.2874 14.9097C71.3857 14.9097 70.3996 13.6369 70.3996 11.7824C70.3996 10.0006 71.3504 8.5824 73.0761 8.5824C74.7313 8.5824 75.7174 9.70967 75.7174 11.6369C75.7526 11.7824 75.7526 12.0733 75.7526 12.2551ZM74.0974 11.0915C74.0622 10.2915 73.8509 9.70967 73.1465 9.70967C72.583 9.70967 72.2309 10.0733 72.1604 11.1642H74.0622V11.0915H74.0974Z" fill="white"/>
<path d="M17.0452 10.5809V15.0173C17.0452 15.1991 16.9043 15.3446 16.7282 15.3446H15.4604C15.2844 15.3446 15.1434 15.1991 15.1434 15.0173V10.9082C15.1434 10.2173 14.9321 10.0355 14.6152 10.0355C14.2278 10.0355 13.9461 10.3628 13.6643 10.8718V14.9809C13.6643 15.1628 13.5235 15.3082 13.3474 15.3082H12.0444C11.9035 15.3082 11.7626 15.1628 11.7626 14.9809V10.9082C11.7626 10.2173 11.5161 10.0355 11.1991 10.0355C10.8117 10.0355 10.53 10.3628 10.2482 10.8718V14.9809C10.2482 15.1628 10.1074 15.3082 9.96649 15.3082H8.66345C8.52258 15.3082 8.34653 15.1628 8.34653 14.9809V9.12639C8.34653 8.94457 8.48736 8.79911 8.66345 8.79911H9.75522C9.89609 8.79911 10.0017 8.90821 10.0369 9.05366L10.1426 9.56275C10.6356 8.90821 11.1991 8.58093 11.9739 8.58093C12.6782 8.58093 13.2065 8.94457 13.453 9.59911C13.9461 8.90821 14.5448 8.58093 15.3195 8.58093C16.3761 8.6173 17.0452 9.34457 17.0452 10.5809Z" fill="#414042"/>
<path d="M47.2617 10.5809V15.0173C47.2617 15.1991 47.1209 15.3446 46.9448 15.3446H45.677C45.5009 15.3446 45.36 15.1991 45.36 15.0173V10.9082C45.36 10.2173 45.1487 10.0355 44.8317 10.0355C44.4444 10.0355 44.1626 10.3628 43.8809 10.8718V14.9809C43.8809 15.1628 43.74 15.3082 43.5639 15.3082H42.2609C42.12 15.3082 41.9791 15.1628 41.9791 14.9809V10.9082C41.9791 10.2173 41.7326 10.0355 41.4157 10.0355C41.0283 10.0355 40.7465 10.3628 40.4648 10.8718V14.9809C40.4648 15.1628 40.3239 15.3082 40.183 15.3082H38.88C38.7391 15.3082 38.563 15.1628 38.563 14.9809V9.12639C38.563 8.94457 38.7039 8.79911 38.88 8.79911H39.9717C40.1126 8.79911 40.2183 8.90821 40.2535 9.05366L40.3591 9.56275C40.8522 8.90821 41.4157 8.58093 42.1904 8.58093C42.8948 8.58093 43.4231 8.94457 43.6696 9.59911C44.1626 8.90821 44.7613 8.58093 45.5361 8.58093C46.5926 8.6173 47.2617 9.34457 47.2617 10.5809Z" fill="#414042"/>
<path d="M21.9404 15.3458C21.4474 16.9094 20.4613 17.8185 18.7004 18.0003C18.5595 18.0003 18.3834 17.8912 18.3834 17.7458L18.2778 16.9821C18.2426 16.8367 18.3482 16.6549 18.4891 16.6549C19.3343 16.5094 19.7921 16.2185 20.0739 15.673C19.8626 15.6367 19.616 15.273 19.5456 15.0185L17.82 9.23667C17.7495 9.05485 17.8904 8.83667 18.1017 8.83667H19.44C19.5808 8.83667 19.6865 8.94576 19.7569 9.09121L20.8134 14.1094L22.0108 9.09121C22.046 8.94576 22.1517 8.87303 22.2926 8.87303H23.5956C23.8069 8.87303 23.9478 9.09121 23.8773 9.27303L21.9404 15.3458Z" fill="#414042"/>
<path d="M37.4361 12.0725C37.4361 14.1452 36.2739 15.527 34.3721 15.527C32.4704 15.527 31.3082 14.2543 31.3082 12.0725C31.3082 9.99974 32.4704 8.61792 34.3721 8.61792C36.2739 8.61792 37.4361 9.89065 37.4361 12.0725ZM33.21 12.0725C33.21 13.4906 33.5974 14.1088 34.3369 14.1088C35.0765 14.1088 35.4639 13.4906 35.4639 12.0725C35.4639 10.6179 35.0765 10.0361 34.3369 10.0361C33.5974 10.0361 33.21 10.6543 33.21 12.0725Z" fill="#414042"/>
<path d="M54.2348 11.9639C54.2348 9.85478 53.1431 8.65479 51.347 8.65479C49.4452 8.65479 48.4239 10.1821 48.4239 12.1457C48.4239 14.1821 49.4804 15.5639 51.5935 15.5639C52.4035 15.5639 53.0726 15.3093 53.6361 14.9457C53.6713 14.9457 53.6713 14.9093 53.7065 14.9093C53.7417 14.9093 53.777 14.873 53.777 14.8366C53.9178 14.7275 53.953 14.5457 53.8474 14.4366L53.46 13.8184C53.3191 13.6002 53.1078 13.7093 53.0726 13.7093C53.0022 13.7457 52.9317 13.8184 52.8261 13.8548C52.4739 14.073 52.1217 14.1457 51.7344 14.1457C50.9596 14.1457 50.4313 13.8184 50.2904 12.6548H54.1996C54.1996 12.473 54.2348 12.1821 54.2348 11.9639ZM52.4035 11.4911H50.3257C50.3961 10.3275 50.7835 9.92751 51.4174 9.92751C52.157 9.92751 52.4387 10.5457 52.4387 11.4184V11.4911H52.4035Z" fill="#414042"/>
<path d="M30.146 10.5815C30.146 9.34511 29.4769 8.61784 28.4204 8.61784C27.6808 8.61784 27.1173 8.90874 26.6243 9.52693V7.30875V6.36329C26.6243 6.18147 26.4834 6.03602 26.3073 6.07238L25.0395 6.21784C24.8986 6.2542 24.7578 6.36329 24.7578 6.54511V6.58147V14.9815V15.0542C24.7578 15.236 24.8986 15.3815 25.0747 15.3815H26.3425C26.5186 15.3815 26.6595 15.236 26.6595 15.0542V10.9087C26.9764 10.3997 27.3286 10.0724 27.7512 10.0724C28.1034 10.0724 28.3499 10.2542 28.3499 10.9451V14.9815V15.0542C28.3499 15.236 28.4908 15.3815 28.6669 15.3815H29.9347C30.1108 15.3815 30.2517 15.236 30.2517 15.0542L30.146 10.5815Z" fill="#414042"/>
</g>
<defs>
<clipPath id="clip0_99_735">
<rect width="81" height="24" fill="white"/>
</clipPath>
</defs>
</svg>
