<svg width="85" height="24" viewBox="0 0 85 24" fill="none" xmlns="http://www.w3.org/2000/svg">
<path d="M73.0138 0H11.9862C5.3692 0 0 5.227 0 11.6687V12.3313C0 18.773 5.3692 24 11.9862 24H73.0138C79.6308 24 85 18.773 85 12.3313V11.6687C85 5.227 79.6308 0 73.0138 0Z" fill="#009DB9"/>
<path d="M61.9282 12.2576C61.9282 17.2269 57.777 21.276 52.6446 21.276H12.4535C7.35883 21.276 3.16986 17.2269 3.16986 12.2576V11.7423C3.16986 6.77296 7.32109 2.72388 12.4535 2.72388H52.6446C57.7392 2.72388 61.9282 6.77296 61.9282 11.7423V12.2576Z" fill="white"/>
<path d="M50.1537 14.724C50.2292 14.8712 50.1915 15.0553 50.0028 15.1289C49.55 15.3498 48.9461 15.497 48.4555 15.497C46.9837 15.497 46.229 14.6504 46.229 13.1044V10.086H45.6252C45.4365 10.086 45.2856 9.93873 45.2856 9.75468V9.01848C45.2856 8.83443 45.4365 8.68719 45.6252 8.68719H46.229V7.54609C46.229 7.39885 46.3799 7.2516 46.5309 7.21479L47.8894 7.06757C48.0781 7.03076 48.2291 7.17799 48.2291 7.36204V8.65039H49.4367C49.6254 8.65039 49.7764 8.83443 49.7386 9.01848L49.6254 9.75468C49.5877 9.90192 49.4745 10.0124 49.2858 10.0124H48.2291V13.0307C48.2291 13.6565 48.4556 13.8774 48.8707 13.8774C49.0216 13.8774 49.1726 13.8406 49.3235 13.7669C49.4745 13.7301 49.6631 13.7669 49.7386 13.9142L50.1537 14.724Z" fill="#414042"/>
<path d="M18.0387 10.4908V14.9816C18.0387 15.1657 17.8877 15.3129 17.6991 15.3129H16.3405C16.1518 15.3129 16.0008 15.1657 16.0008 14.9816V10.8221C16.0008 10.1227 15.7744 9.93866 15.4348 9.93866C15.0196 9.93866 14.7178 10.2699 14.4159 10.7853V14.9448C14.4159 15.1288 14.2649 15.2761 14.0762 15.2761H12.6799C12.529 15.2761 12.378 15.1288 12.378 14.9448V10.7853C12.378 10.0859 12.1138 9.90184 11.7742 9.90184C11.3591 9.90184 11.0572 10.2331 10.7553 10.7485V14.908C10.7553 15.092 10.6043 15.2393 10.4534 15.2393H9.05706C8.90611 15.2393 8.71741 15.092 8.71741 14.908V8.98159C8.71741 8.79754 8.86837 8.65032 9.05706 8.65032H10.2269C10.3779 8.65032 10.4911 8.76075 10.5288 8.90799L10.642 9.42331C11.1704 8.76074 11.7742 8.42944 12.6044 8.42944C13.3592 8.42944 13.9253 8.79756 14.1894 9.46014C14.7178 8.76075 15.3593 8.42944 16.1895 8.42944C17.3217 8.50306 18.0387 9.23927 18.0387 10.4908Z" fill="#414042"/>
<path d="M23.2844 15.3129C22.7561 16.8958 21.6994 17.816 19.8125 18.0001C19.6616 18.0001 19.4729 17.9265 19.4729 17.7424L19.3596 16.9694C19.3219 16.8221 19.4351 16.6381 19.586 16.6381C20.4918 16.4909 20.9824 16.1964 21.2843 15.6442C21.0578 15.6074 20.7937 15.2393 20.7182 14.9817L18.8691 9.1289C18.7936 8.94485 18.9445 8.724 19.1709 8.724H20.605C20.756 8.724 20.8692 8.83441 20.9447 8.98165L22.0768 14.0614L23.3599 8.98165C23.3976 8.83441 23.5108 8.7608 23.6618 8.7608H25.0581C25.2845 8.7608 25.4355 8.98165 25.36 9.1657L23.2844 15.3129Z" fill="#414042"/>
<path d="M39.5115 14.4295L39.2473 15.2393C39.2096 15.3865 39.0586 15.4602 38.9077 15.4602C38.2661 15.3497 37.8133 15.1289 37.5491 14.5399C37.0585 15.2761 36.3415 15.5338 35.5112 15.5338C34.1904 15.5338 33.3224 14.6871 33.3224 13.4724C33.3224 12.0368 34.4168 11.2638 36.4924 11.2638H37.1717V10.9694C37.1717 10.1963 36.8698 9.93869 36.0396 9.93869C35.6622 9.93869 35.1338 10.0123 34.5678 10.1964C34.4168 10.2332 34.2281 10.1595 34.1527 10.0123L33.9262 9.31291C33.8885 9.16567 33.9639 8.98163 34.1149 8.90802C34.8696 8.68716 35.6999 8.53992 36.3414 8.53992C38.3038 8.53992 39.1341 9.31292 39.1341 10.8589V13.3988C39.1341 13.7669 39.2095 13.9878 39.3605 14.0982C39.5114 14.1718 39.5492 14.3191 39.5115 14.4295ZM37.1717 13.4724V12.2945H36.6811C35.7754 12.2945 35.3225 12.6258 35.3225 13.2516C35.3225 13.7669 35.6244 14.0982 36.115 14.0982C36.5679 14.0982 36.9075 13.8405 37.1717 13.4724Z" fill="#414042"/>
<path d="M54.0786 11.227C52.871 10.8957 52.6823 10.7485 52.6823 10.3804C52.6823 10.0859 52.9465 9.90186 53.4748 9.90186C53.9277 9.90186 54.3428 10.0123 54.7579 10.1964C54.7957 10.2332 54.8334 10.2332 54.8711 10.27C55.0221 10.3436 55.2108 10.3068 55.2863 10.1595L55.7014 9.53376C55.7769 9.38652 55.7391 9.20248 55.6259 9.12887C55.5882 9.09206 55.475 9.05524 55.475 9.05524C54.9089 8.72395 54.1919 8.53992 53.3994 8.53992C51.7012 8.53992 50.6445 9.42334 50.6445 10.5276C50.6445 11.5583 51.286 12.2209 52.6446 12.589C53.8522 12.9203 54.0786 13.0675 54.0786 13.5092C54.0786 13.9141 53.7013 14.135 53.0975 14.135C52.5691 14.135 52.0785 13.9878 51.6634 13.7301C51.6257 13.6933 51.5502 13.6565 51.5125 13.6197C51.3993 13.546 51.2105 13.5829 51.0973 13.7301L50.6068 14.3927C50.4935 14.5399 50.5313 14.724 50.6445 14.8344C50.6822 14.8712 50.72 14.908 50.7577 14.9448C51.3993 15.3497 52.1917 15.6074 53.1352 15.6074C54.7957 15.6074 56.1165 14.7976 56.1165 13.4356C56.1542 12.1473 55.4372 11.5951 54.0786 11.227Z" fill="#414042"/>
<path d="M44.4932 8.53992H44.4177C44.3422 8.53992 44.229 8.53992 44.1158 8.53992C43.361 8.53992 42.6817 9.09206 42.3798 10.0123L42.2666 9.20249V9.12887V9.05524C42.2666 8.87119 42.1157 8.72397 41.927 8.72397H41.5496H41.2477H40.7949C40.6062 8.72397 40.4552 8.87119 40.4552 9.05524V9.20249V14.8344V14.908V14.9816C40.4552 15.1657 40.6062 15.3129 40.7949 15.3129H42.1534C42.3421 15.3129 42.4931 15.1657 42.4931 14.9816V14.8344V12C42.7195 11.0062 43.0591 10.454 43.8894 10.454C43.9648 10.454 44.0781 10.454 44.1536 10.4908H44.1913H44.229C44.38 10.4908 44.5309 10.3804 44.5687 10.2332L44.7951 8.94482C44.7951 8.72396 44.6819 8.57673 44.4932 8.53992Z" fill="#414042"/>
<path d="M30.0773 8.50317C29.398 8.50317 28.681 8.76086 28.1526 9.46024L28.1149 9.20257V9.12895V9.05532C28.1149 8.87127 27.964 8.72405 27.7753 8.72405H27.3979H27.096H26.6431C26.4544 8.72405 26.3035 8.87127 26.3035 9.05532V9.23937V15.9388V17.5952V17.5584V17.6688C26.3035 17.8529 26.4544 18.0001 26.6431 17.9633L28.0017 17.8161C28.1526 17.7792 28.3036 17.6688 28.3036 17.4848V17.4112V17.448V17.4112V14.7977C28.7187 15.2394 29.2848 15.4602 29.9263 15.4602C31.5868 15.4602 32.6057 13.9878 32.6057 11.9633C32.568 9.86515 31.8132 8.50317 30.0773 8.50317ZM29.2848 14.0615C28.8697 14.0615 28.5677 13.8774 28.2658 13.4725V10.7118C28.5677 10.2332 28.9452 9.93877 29.4357 9.93877C30.115 9.93877 30.5301 10.3805 30.5301 12.0001C30.4924 13.4725 30.0395 14.0615 29.2848 14.0615Z" fill="#414042"/>
<path d="M66.9473 13.7669C66.9473 14.319 66.4567 14.7976 65.8906 14.7976C65.2868 14.7976 64.834 14.319 64.834 13.7669C64.834 13.2147 65.2868 12.7362 65.8906 12.7362C66.4567 12.7362 66.9473 13.2147 66.9473 13.7669Z" fill="white"/>
<path d="M73.0985 9.05524C72.7212 9.16567 72.2683 9.20249 71.6268 9.20249C72.4193 9.53378 72.7966 9.9755 72.7966 10.7485C72.7966 11.9264 71.8155 12.7362 70.2305 12.7362C69.9663 12.7362 69.7399 12.7362 69.5134 12.6626C69.3625 12.7362 69.287 12.8835 69.287 12.9939C69.287 13.1779 69.3625 13.362 69.9663 13.362H70.9097C72.3438 13.362 73.2495 14.0982 73.2495 15.0921C73.2495 16.3436 72.1174 17.0798 70.004 17.0798C67.9284 17.0798 67.2114 16.4908 67.0982 15.497C67.0604 15.3129 67.2491 15.1657 67.4378 15.1657H68.4567C68.6077 15.1657 68.7209 15.2393 68.7587 15.3865C68.8341 15.7546 69.1738 15.9019 70.0795 15.9019C71.1739 15.9019 71.4003 15.6074 71.4003 15.2393C71.4003 14.8712 71.1739 14.6503 70.5323 14.6503H69.6267C68.2681 14.6503 67.7398 14.0982 67.7398 13.4724C67.7398 13.0307 68.0416 12.589 68.4567 12.3313C67.6642 11.9264 67.3624 11.4111 67.3624 10.6013C67.3624 9.2393 68.4568 8.39267 70.0795 8.39267C71.2494 8.42948 72.0042 8.17182 72.6457 7.80372C72.7967 7.7301 73.0231 7.80372 73.0985 7.98777L73.325 8.65035C73.4004 8.83439 73.2872 9.01843 73.0985 9.05524ZM69.2115 10.6013C69.2115 11.2638 69.5889 11.6319 70.155 11.6319C70.7588 11.6319 71.0607 11.2638 71.0607 10.6013C71.0607 9.93868 70.7588 9.60739 70.155 9.60739C69.5889 9.57058 69.2115 9.97549 69.2115 10.6013Z" fill="white"/>
<path d="M79.2878 12.1472H75.4762C75.5894 13.2147 76.1178 13.5092 76.8725 13.5092C77.2876 13.5092 77.665 13.3988 78.0801 13.1411C78.2311 13.0307 78.4198 13.1043 78.4953 13.2147L78.8727 13.7301C78.9859 13.8773 78.9481 14.0614 78.7971 14.1718C78.2311 14.5399 77.5141 14.8344 76.6461 14.8344C74.6082 14.8344 73.5515 13.546 73.5515 11.6687C73.5515 9.86504 74.5705 8.42944 76.4197 8.42944C78.1934 8.42944 79.25 9.57056 79.25 11.5215C79.3255 11.6687 79.3255 11.9632 79.2878 12.1472ZM77.514 10.9693C77.4763 10.1595 77.2499 9.57056 76.4951 9.57056C75.8913 9.57056 75.5139 9.93866 75.4384 11.043H77.4763V10.9693H77.514Z" fill="white"/>
</svg>
