<svg width="87" height="27" viewBox="0 0 87 27" fill="none" xmlns="http://www.w3.org/2000/svg">
<g clip-path="url(#clip0_26_454)">
<path d="M16.148 21.0744C16.3545 21.0059 16.5333 20.893 16.6774 20.75C17.0298 20.3997 17.1743 19.8691 17.0055 19.3676C16.7677 18.6611 15.9983 18.2797 15.2868 18.5159C13.358 19.1561 11.2666 18.6668 9.82889 17.2388C8.39165 15.8113 7.89918 13.7348 8.5437 11.8192C8.78155 11.1126 8.3974 10.3486 7.68613 10.1123C6.97461 9.87613 6.20502 10.258 5.96755 10.964C4.99425 13.8559 5.73788 16.9912 7.908 19.1463C10.0788 21.3023 13.2361 22.0412 16.148 21.0746V21.0744Z" fill="#3C74FF"/>
<path d="M5.91137 5.8697C9.458 2.34761 14.9277 1.68544 19.2128 4.25947C19.7586 4.58725 20.4441 4.48883 20.8758 4.05995C20.9518 3.98451 21.0198 3.89879 21.0778 3.80341C21.4661 3.166 21.2607 2.33669 20.6188 1.95112C15.2612 -1.26718 8.42358 -0.440155 3.99061 3.96216C-0.443509 8.36575 -1.27614 15.1565 1.96563 20.4762C2.35413 21.1135 3.18931 21.3174 3.83089 20.9316C4.47298 20.5462 4.67797 19.7167 4.28972 19.0793C1.69695 14.8248 2.36385 9.39267 5.91137 5.86957V5.8697Z" fill="#3C74FF"/>
<path d="M23.3572 6.06957C22.7144 6.45552 22.51 7.2847 22.8984 7.92198C25.4912 12.1763 24.8248 17.6077 21.2778 21.1304C17.7308 24.6529 12.2614 25.315 7.97758 22.74C7.33588 22.3545 6.50133 22.5567 6.11232 23.1957C5.72407 23.8329 5.92932 24.6622 6.57115 25.048C11.9275 28.2676 18.765 27.4409 23.1984 23.0381C27.632 18.635 28.4643 11.8447 25.2225 6.52524C24.8339 5.88783 23.9988 5.68387 23.3572 6.06957Z" fill="#3C74FF"/>
<path d="M19.4469 16.9843C19.9565 17.1623 20.5011 17.0207 20.8591 16.6651C20.9983 16.5271 21.1092 16.3564 21.179 16.1597C22.2014 13.2744 21.456 10.0137 19.28 7.85264C17.1033 5.69085 13.8199 4.95121 10.9156 5.96797C10.2084 6.21562 9.83694 6.98587 10.0862 7.68843C10.3355 8.39112 11.1113 8.7598 11.8188 8.51202C13.7428 7.83842 15.9174 8.32838 17.3591 9.76005C18.8007 11.1916 19.2943 13.3521 18.6167 15.264C18.3677 15.9668 18.7394 16.7369 19.447 16.9842L19.4469 16.9843Z" fill="#3C74FF"/>
<path d="M11.8905 11.808C10.9496 12.7425 10.9496 14.2576 11.8905 15.1919C12.8314 16.1264 14.357 16.1264 15.2978 15.1919C16.2388 14.2576 16.2388 12.7425 15.2978 11.808C14.357 10.8737 12.8314 10.8737 11.8905 11.808Z" fill="#3C74FF"/>
<path d="M51.3643 20.3956H46.3788V17.225H51.3643V20.3956ZM50.3972 15.0788H44.2186V24.0514C44.2186 24.6436 44.7021 25.1238 45.2984 25.1238C45.8947 25.1236 46.3787 24.6439 46.379 24.0514V22.5419H50.3972C52.1239 22.5419 53.5245 21.1518 53.5245 19.436V18.1846C53.5245 16.4689 52.1239 15.0788 50.3972 15.0788Z" fill="#3C74FF"/>
<path d="M61.9213 20.3956H56.9359V17.225H61.9213V20.3956ZM60.9543 15.0788H54.7757V24.0514C54.7757 24.6436 55.2592 25.1238 55.8553 25.1238C56.4517 25.1236 56.9358 24.6439 56.9359 24.0514V22.5419H60.9541C62.6808 22.5419 64.0816 21.1518 64.0816 19.436V18.1846C64.0816 16.4689 62.6808 15.0788 60.9541 15.0788H60.9543Z" fill="#3C74FF"/>
<path d="M36.7005 20.5281L37.8601 17.2248H40.586V20.5281H36.7005ZM37.9632 15.0785C37.0937 15.0785 36.3135 15.6085 35.9983 16.4132L33.1959 23.5683C32.9023 24.3178 33.4591 25.126 34.2687 25.126C34.7584 25.126 35.1945 24.8183 35.3557 24.359L35.9836 22.5702H40.586V24.0531C40.586 24.6455 41.0695 25.126 41.6661 25.126C42.2626 25.126 42.7462 24.6457 42.7462 24.0531V15.0785H37.9632Z" fill="#3C74FF"/>
<path d="M44.5652 8.81568V2.94677C44.5652 2.35432 45.0488 1.87413 45.6455 1.87413C46.242 1.87413 46.7255 2.35432 46.7255 2.94677V9.77528H52.5656V2.94677C52.5656 2.35432 53.0491 1.87413 53.6456 1.87413C54.2422 1.87413 54.7258 2.35432 54.7258 2.94677V8.81568C54.7258 10.5309 53.3256 11.9216 51.5984 11.9216H47.5234C45.7962 11.9216 44.5654 10.5309 44.5654 8.81568H44.5652Z" fill="#3C74FF"/>
<path d="M68.8967 4.13295V5.88148H76.0425V8.02701H68.8967V9.77554H76.0425V11.9218H69.8638C68.1372 11.9218 66.7364 10.5316 66.7364 8.81593V5.09281C66.7364 3.37705 68.1372 1.98691 69.8638 1.98691H76.0425V4.1332H68.8967V4.13295Z" fill="#3C74FF"/>
<path d="M63.3909 7.28762H58.4062V4.11606H63.3909V7.28762ZM62.4238 1.97066H56.2452V10.9436C56.2452 11.5356 56.7287 12.0159 57.3258 12.0159C57.9216 12.0157 58.4064 11.536 58.4064 10.9436V9.43404H62.4238C64.1505 9.43404 65.5512 8.04391 65.5512 6.32814V5.07669C65.5512 3.36105 64.1506 1.97078 62.4238 1.97078V1.97066Z" fill="#3C74FF"/>
<path d="M84.8399 7.28762H79.8544V4.13283H84.8399V7.28762ZM87 6.32801V5.07656C87 3.36092 85.5995 1.97066 83.8727 1.97066H77.694V12.0158H79.8544V9.43392H81.8301L84.203 12.0158H86.9459L84.5643 9.35569C85.9583 9.04339 87 7.80692 87 6.32801Z" fill="#3C74FF"/>
<path d="M36.2152 4.11643V5.88097H40.774C42.2028 5.88097 43.361 7.03107 43.361 8.45004V8.81529C43.361 10.5305 41.9607 11.9211 40.2336 11.9211H34.1396V9.77477H41.2006V8.01037L36.6476 8.02053C35.2166 8.0237 34.0549 6.87258 34.0549 5.45145V5.07604C34.0549 3.36028 35.4556 1.97014 37.1822 1.97014H42.8935V4.11643H36.2151H36.2152Z" fill="#3C74FF"/>
</g>
<defs>
<clipPath id="clip0_26_454">
<rect width="87" height="27" fill="white"/>
</clipPath>
</defs>
</svg>
