<svg width="131" height="32" viewBox="0 0 131 32" fill="none" xmlns="http://www.w3.org/2000/svg">
<path d="M74.2552 0.813446H0V9.72906C3.47065 9.72906 6.27626 12.5347 6.27626 16.0053C6.27626 19.476 3.47065 22.2816 0 22.2816V31.218H74.2552" fill="#009DF6"/>
<path d="M74.2553 31.218H130.721V22.2816C127.25 22.2816 124.445 19.476 124.445 16.0053C124.445 12.5347 127.25 9.72906 130.721 9.72906V0.813446H74.2553" fill="#FF005F"/>
<path d="M22.0085 27.2693H15.9192V10.1655H12.5733V4.76207H25.4791V10.1655H21.9877V27.2693H22.0085Z" fill="white"/>
<path d="M45.3883 27.2693H38.8211L34.7893 16.8989L34.9556 27.2693H28.8871V4.76207H34.9556L34.7893 14.4051L38.3847 4.76207H44.8064L39.9433 15.6312L45.3883 27.2693Z" fill="white"/>
<path d="M58.0865 27.2693H51.9973V10.1655H48.6513V4.76207H61.5571V10.1655H58.0657V27.2693H58.0865Z" fill="white"/>
<path d="M95.1413 14.2596H103.62V15.1948C103.62 19.5383 102.976 22.6556 101.688 24.5468C100.275 26.6251 98.1963 27.6642 95.4323 27.6642C92.7098 27.6642 90.59 26.6458 89.0521 24.6092C87.5142 22.5517 86.7452 19.7253 86.7452 16.13C86.7452 12.4931 87.5142 9.60433 89.0729 7.50532C90.6108 5.4063 92.7305 4.34641 95.4115 4.34641C98.9652 4.34641 101.542 6.19603 103.142 9.91607L97.2611 12.0774C97.178 11.3708 96.9701 10.8097 96.6584 10.3941C96.3467 9.97841 95.9518 9.77059 95.4738 9.77059C93.8112 9.77059 92.9592 12.0774 92.9592 16.6703C92.9592 18.6239 93.1462 20.0371 93.5203 20.9307C93.8944 21.8243 94.4763 22.2608 95.2868 22.2608C95.5985 22.2608 95.8895 22.1776 96.1596 22.0322C96.4298 21.8867 96.6376 21.6581 96.8247 21.3671C97.0117 21.0762 97.1364 20.7437 97.2403 20.3488C97.3442 19.9539 97.3858 19.4967 97.3858 18.9979H95.1413V14.2596Z" fill="white"/>
<path d="M106.863 27.2693V4.76207H118.147V10.0616H112.931V13.3452H117.628V18.4368H112.952V21.8867H118.168V27.2901H106.863V27.2693Z" fill="white"/>
<path d="M74.2554 22.2817C77.7217 22.2817 80.5317 19.4717 80.5317 16.0054C80.5317 12.5391 77.7217 9.72914 74.2554 9.72914C70.7891 9.72914 67.9792 12.5391 67.9792 16.0054C67.9792 19.4717 70.7891 22.2817 74.2554 22.2817Z" fill="white"/>
</svg>
