<svg width="141" height="40" viewBox="0 0 141 40" fill="none" xmlns="http://www.w3.org/2000/svg">
<rect width="141" height="40" rx="12" fill="#253DAB"/>
<path d="M38.916 24.8854C38.6931 24.8854 38.5028 24.8038 38.335 24.6478C38.1697 24.487 38.0871 24.3022 38.0871 24.091V23.323H44.5208V17.8654H38.0871V17.0782C38.0871 16.867 38.1672 16.6822 38.335 16.5238C38.5028 16.3654 38.6931 16.2862 38.916 16.2862H48.5277V10.6606H38.8935C36.6421 10.6606 35.177 11.2366 33.9599 12.3886C32.8255 13.4902 32.2244 14.7934 32.1543 16.3054V24.8854C32.2244 26.395 32.8255 27.6982 33.9599 28.7974C35.177 29.9494 36.6421 30.523 38.3551 30.523H48.5302V24.883H38.916V24.8854Z" fill="white"/>
<path d="M77.4278 10.6606H71.54V30.5278H77.4278C80.2852 30.5278 82.7295 29.5582 84.7555 27.619C86.779 25.6798 87.7933 23.3374 87.7933 20.5966C87.7933 17.8534 86.779 15.5158 84.7555 13.5718C82.727 11.6302 80.2852 10.6606 77.4278 10.6606ZM80.5757 23.6254C79.7067 24.4654 78.6574 24.8854 77.4278 24.8854V16.2862C78.6574 16.2862 79.7067 16.7062 80.5757 17.5462C81.4472 18.3886 81.883 19.4062 81.883 20.5966C81.883 21.775 81.4472 22.783 80.5757 23.6254Z" fill="white"/>
<path d="M99.9016 10.6606C97.0392 10.6606 94.5974 11.635 92.5714 13.579C90.5454 15.5278 89.5361 17.863 89.5361 20.5942C89.5361 23.335 90.5454 25.675 92.5714 27.6166C94.5974 29.5558 97.0392 30.5254 99.9016 30.5254C102.762 30.5254 105.208 29.5558 107.239 27.6166C109.27 25.675 110.287 23.335 110.287 20.5942C110.287 17.863 109.27 15.5278 107.239 13.579C105.208 11.635 102.762 10.6606 99.9016 10.6606ZM103.062 23.6254C102.186 24.4654 101.129 24.8854 99.9016 24.8854C98.672 24.8854 97.6152 24.4654 96.7386 23.6254C95.8621 22.7854 95.4214 21.7654 95.4214 20.5726C95.4214 19.3966 95.8621 18.3862 96.7386 17.5438C97.6152 16.7038 98.672 16.2838 99.9016 16.2838C101.129 16.2838 102.183 16.7038 103.062 17.5438C103.936 18.3862 104.379 19.3966 104.379 20.5726C104.379 21.7654 103.936 22.783 103.062 23.6254Z" fill="white"/>
<path d="M129.734 13.579C127.703 11.635 125.256 10.6606 122.396 10.6606C119.536 10.6606 117.097 11.635 115.068 13.579C113.042 15.5278 112.033 17.863 112.033 20.5942C112.033 23.335 113.042 25.675 115.068 27.6166C117.097 29.5558 119.536 30.5254 122.396 30.5254C125.256 30.5254 127.703 29.5558 129.734 27.6166C131.765 25.675 132.782 23.335 132.782 20.5942C132.782 17.8654 131.765 15.5278 129.734 13.579ZM125.559 23.6254C124.68 24.4654 123.626 24.8854 122.399 24.8854C121.169 24.8854 120.115 24.4654 119.238 23.6254C118.362 22.7854 117.918 21.7654 117.918 20.5726C117.918 19.3966 118.362 18.3862 119.238 17.5438C120.112 16.7038 121.169 16.2838 122.399 16.2838C123.628 16.2838 124.683 16.7038 125.559 17.5438C126.433 18.3862 126.874 19.3966 126.874 20.5726C126.874 21.7654 126.433 22.783 125.559 23.6254Z" fill="white"/>
<path d="M68.4607 10.6606H62.573V19.2118L58.3031 12.3622H58.3006C57.6519 11.4022 56.5275 10.7662 55.2453 10.7662C53.2343 10.7662 51.6064 12.3286 51.6064 14.2534C51.6064 14.2678 51.609 14.2798 51.609 14.2918H51.6064V30.5806H57.4942V21.7006L61.992 28.915L61.9945 28.9126C62.6055 29.8774 63.71 30.5254 64.9747 30.5254C66.9005 30.5254 68.4607 29.0302 68.4607 27.1846C68.4607 27.1054 68.4532 27.0286 68.4482 26.9518H68.4607V10.6606Z" fill="white"/>
<path d="M25.176 10.6573L23.3027 16.3957L23.2902 16.4245L21.8953 20.4541L19.8643 14.5957C19.5187 13.7341 19.0253 13.0093 18.3917 12.4093C17.1871 11.2453 15.7371 10.6621 14.0391 10.6621H8.32422L9.62398 16.2853H13.5808C13.691 16.2853 13.9239 16.2661 14.1017 16.3981C14.2796 16.5301 14.3747 16.8037 14.3747 16.8061L18.299 27.9301H18.3015C18.7548 29.4301 20.1948 30.5269 21.9053 30.5269C23.5782 30.5269 24.9932 29.4781 25.479 28.0285L28.9901 17.9893L31.2315 10.6573H25.176Z" fill="white"/>
</svg>
